<mxfile host="app.diagrams.net" agent="Mozilla/5.0 (Windows NT 10.0; Win64; x64) AppleWebKit/537.36 (KHTML, like Gecko) Chrome/141.0.0.0 Safari/537.36" version="28.2.5">
  <diagram name="Página-1" id="soXsIREe1FiqxU8sOiiF">
    <mxGraphModel dx="1884" dy="777" grid="1" gridSize="10" guides="1" tooltips="1" connect="1" arrows="1" fold="1" page="1" pageScale="1" pageWidth="1169" pageHeight="827" math="0" shadow="0">
      <root>
        <mxCell id="0" />
        <mxCell id="1" parent="0" />
        <mxCell id="I3BrOEBHC2HNNkQ6PEPC-1" style="edgeStyle=orthogonalEdgeStyle;rounded=0;orthogonalLoop=1;jettySize=auto;html=1;sketch=1;curveFitting=1;jiggle=2;strokeWidth=3;" edge="1" parent="1" source="I3BrOEBHC2HNNkQ6PEPC-2" target="I3BrOEBHC2HNNkQ6PEPC-3">
          <mxGeometry relative="1" as="geometry" />
        </mxCell>
        <mxCell id="I3BrOEBHC2HNNkQ6PEPC-2" value="Inicio" style="ellipse;whiteSpace=wrap;html=1;fillColor=#dae8fc;strokeColor=#6c8ebf;strokeWidth=3;shadow=1;sketch=1;curveFitting=1;jiggle=2;" vertex="1" parent="1">
          <mxGeometry x="40" y="30" width="120" height="80" as="geometry" />
        </mxCell>
        <mxCell id="I3BrOEBHC2HNNkQ6PEPC-3" value="LER N1, N2, N3" style="shape=parallelogram;perimeter=parallelogramPerimeter;whiteSpace=wrap;html=1;fixedSize=1;fillColor=#e1d5e7;strokeColor=#9673a6;strokeWidth=3;shadow=1;sketch=1;curveFitting=1;jiggle=2;" vertex="1" parent="1">
          <mxGeometry x="40" y="140" width="120" height="60" as="geometry" />
        </mxCell>
        <mxCell id="I3BrOEBHC2HNNkQ6PEPC-4" style="edgeStyle=orthogonalEdgeStyle;rounded=0;orthogonalLoop=1;jettySize=auto;html=1;entryX=1;entryY=0.5;entryDx=0;entryDy=0;sketch=1;curveFitting=1;jiggle=2;strokeWidth=3;" edge="1" parent="1" source="I3BrOEBHC2HNNkQ6PEPC-5" target="I3BrOEBHC2HNNkQ6PEPC-6">
          <mxGeometry relative="1" as="geometry">
            <Array as="points">
              <mxPoint x="430" y="550" />
            </Array>
          </mxGeometry>
        </mxCell>
        <mxCell id="I3BrOEBHC2HNNkQ6PEPC-5" value="Escrever N3" style="shape=parallelogram;perimeter=parallelogramPerimeter;whiteSpace=wrap;html=1;fixedSize=1;fillColor=#e1d5e7;strokeColor=#9673a6;strokeWidth=3;shadow=1;sketch=1;curveFitting=1;jiggle=2;" vertex="1" parent="1">
          <mxGeometry x="356" y="380" width="140" height="60" as="geometry" />
        </mxCell>
        <mxCell id="I3BrOEBHC2HNNkQ6PEPC-6" value="Fim" style="ellipse;whiteSpace=wrap;html=1;fillColor=#f8cecc;strokeColor=#b85450;strokeWidth=3;shadow=1;sketch=1;curveFitting=1;jiggle=2;" vertex="1" parent="1">
          <mxGeometry x="206" y="510" width="120" height="80" as="geometry" />
        </mxCell>
        <mxCell id="I3BrOEBHC2HNNkQ6PEPC-7" style="edgeStyle=orthogonalEdgeStyle;rounded=0;orthogonalLoop=1;jettySize=auto;html=1;entryX=0;entryY=0.5;entryDx=0;entryDy=0;sketch=1;curveFitting=1;jiggle=2;strokeWidth=3;" edge="1" parent="1" source="I3BrOEBHC2HNNkQ6PEPC-8" target="I3BrOEBHC2HNNkQ6PEPC-6">
          <mxGeometry relative="1" as="geometry">
            <Array as="points">
              <mxPoint x="100" y="550" />
            </Array>
          </mxGeometry>
        </mxCell>
        <mxCell id="I3BrOEBHC2HNNkQ6PEPC-8" value="Escrever N1" style="shape=parallelogram;perimeter=parallelogramPerimeter;whiteSpace=wrap;html=1;fixedSize=1;fillColor=#e1d5e7;strokeColor=#9673a6;strokeWidth=3;shadow=1;sketch=1;curveFitting=1;jiggle=2;" vertex="1" parent="1">
          <mxGeometry x="30" y="380" width="140" height="60" as="geometry" />
        </mxCell>
        <mxCell id="I3BrOEBHC2HNNkQ6PEPC-9" value="" style="edgeStyle=orthogonalEdgeStyle;rounded=0;orthogonalLoop=1;jettySize=auto;html=1;entryX=0.5;entryY=0;entryDx=0;entryDy=0;exitX=1;exitY=0.5;exitDx=0;exitDy=0;sketch=1;curveFitting=1;jiggle=2;strokeWidth=3;" edge="1" parent="1" source="I3BrOEBHC2HNNkQ6PEPC-21" target="I3BrOEBHC2HNNkQ6PEPC-5">
          <mxGeometry relative="1" as="geometry">
            <mxPoint x="316" y="260" as="sourcePoint" />
            <mxPoint x="366" y="270" as="targetPoint" />
          </mxGeometry>
        </mxCell>
        <mxCell id="I3BrOEBHC2HNNkQ6PEPC-10" style="edgeStyle=orthogonalEdgeStyle;rounded=0;orthogonalLoop=1;jettySize=auto;html=1;sketch=1;curveFitting=1;jiggle=2;strokeWidth=3;" edge="1" parent="1" source="I3BrOEBHC2HNNkQ6PEPC-11" target="I3BrOEBHC2HNNkQ6PEPC-6">
          <mxGeometry relative="1" as="geometry" />
        </mxCell>
        <mxCell id="I3BrOEBHC2HNNkQ6PEPC-11" value="Escrever N2" style="shape=parallelogram;perimeter=parallelogramPerimeter;whiteSpace=wrap;html=1;fixedSize=1;fillColor=#e1d5e7;strokeColor=#9673a6;strokeWidth=3;shadow=1;sketch=1;curveFitting=1;jiggle=2;" vertex="1" parent="1">
          <mxGeometry x="196" y="380" width="140" height="60" as="geometry" />
        </mxCell>
        <mxCell id="I3BrOEBHC2HNNkQ6PEPC-12" value="" style="edgeStyle=orthogonalEdgeStyle;rounded=0;orthogonalLoop=1;jettySize=auto;html=1;sketch=1;curveFitting=1;jiggle=2;strokeWidth=3;" edge="1" parent="1" target="I3BrOEBHC2HNNkQ6PEPC-5">
          <mxGeometry relative="1" as="geometry">
            <mxPoint x="426" y="300" as="sourcePoint" />
          </mxGeometry>
        </mxCell>
        <mxCell id="I3BrOEBHC2HNNkQ6PEPC-13" value="NÂO" style="edgeLabel;html=1;align=center;verticalAlign=middle;resizable=0;points=[];" vertex="1" connectable="0" parent="I3BrOEBHC2HNNkQ6PEPC-12">
          <mxGeometry x="-0.3" y="1" relative="1" as="geometry">
            <mxPoint x="-1" y="22" as="offset" />
          </mxGeometry>
        </mxCell>
        <mxCell id="I3BrOEBHC2HNNkQ6PEPC-14" value="" style="edgeStyle=orthogonalEdgeStyle;rounded=0;orthogonalLoop=1;jettySize=auto;html=1;sketch=1;curveFitting=1;jiggle=2;strokeWidth=3;" edge="1" parent="1" source="I3BrOEBHC2HNNkQ6PEPC-18" target="I3BrOEBHC2HNNkQ6PEPC-21">
          <mxGeometry relative="1" as="geometry" />
        </mxCell>
        <mxCell id="I3BrOEBHC2HNNkQ6PEPC-15" value="" style="edgeStyle=orthogonalEdgeStyle;rounded=0;orthogonalLoop=1;jettySize=auto;html=1;sketch=1;curveFitting=1;jiggle=2;strokeWidth=3;" edge="1" parent="1" source="I3BrOEBHC2HNNkQ6PEPC-18" target="I3BrOEBHC2HNNkQ6PEPC-3">
          <mxGeometry relative="1" as="geometry" />
        </mxCell>
        <mxCell id="I3BrOEBHC2HNNkQ6PEPC-16" value="" style="edgeStyle=orthogonalEdgeStyle;rounded=0;orthogonalLoop=1;jettySize=auto;html=1;sketch=1;curveFitting=1;jiggle=2;strokeWidth=3;" edge="1" parent="1" source="I3BrOEBHC2HNNkQ6PEPC-18" target="I3BrOEBHC2HNNkQ6PEPC-8">
          <mxGeometry relative="1" as="geometry" />
        </mxCell>
        <mxCell id="I3BrOEBHC2HNNkQ6PEPC-17" value="SIM" style="edgeLabel;html=1;align=center;verticalAlign=middle;resizable=0;points=[];" vertex="1" connectable="0" parent="I3BrOEBHC2HNNkQ6PEPC-16">
          <mxGeometry x="-0.08" y="3" relative="1" as="geometry">
            <mxPoint as="offset" />
          </mxGeometry>
        </mxCell>
        <mxCell id="I3BrOEBHC2HNNkQ6PEPC-18" value="N1&amp;gt;N2 AND&lt;div&gt;N1&amp;gt;N3&lt;/div&gt;" style="rhombus;whiteSpace=wrap;html=1;fillColor=#d5e8d4;strokeColor=#82b366;sketch=1;curveFitting=1;jiggle=2;strokeWidth=3;" vertex="1" parent="1">
          <mxGeometry x="50" y="230" width="100" height="100" as="geometry" />
        </mxCell>
        <mxCell id="I3BrOEBHC2HNNkQ6PEPC-19" value="" style="edgeStyle=orthogonalEdgeStyle;rounded=0;orthogonalLoop=1;jettySize=auto;html=1;sketch=1;curveFitting=1;jiggle=2;strokeWidth=3;" edge="1" parent="1" source="I3BrOEBHC2HNNkQ6PEPC-21" target="I3BrOEBHC2HNNkQ6PEPC-11">
          <mxGeometry relative="1" as="geometry" />
        </mxCell>
        <mxCell id="I3BrOEBHC2HNNkQ6PEPC-20" value="SIM" style="edgeLabel;html=1;align=center;verticalAlign=middle;resizable=0;points=[];" vertex="1" connectable="0" parent="I3BrOEBHC2HNNkQ6PEPC-19">
          <mxGeometry x="-0.24" y="-2" relative="1" as="geometry">
            <mxPoint as="offset" />
          </mxGeometry>
        </mxCell>
        <mxCell id="I3BrOEBHC2HNNkQ6PEPC-21" value="N2&amp;gt;N3 AND&lt;div&gt;N2&amp;gt;N1&lt;/div&gt;" style="rhombus;whiteSpace=wrap;html=1;fillColor=#d5e8d4;strokeColor=#82b366;sketch=1;curveFitting=1;jiggle=2;strokeWidth=3;" vertex="1" parent="1">
          <mxGeometry x="214" y="230" width="104" height="100" as="geometry" />
        </mxCell>
        <mxCell id="I3BrOEBHC2HNNkQ6PEPC-22" value="4º Fluxograma" style="text;html=1;align=center;verticalAlign=middle;resizable=0;points=[];autosize=1;strokeColor=none;fillColor=none;" vertex="1" parent="1">
          <mxGeometry x="360" y="80" width="100" height="30" as="geometry" />
        </mxCell>
      </root>
    </mxGraphModel>
  </diagram>
</mxfile>
